# xmcd
#
# Track frame offsets:
# 150
# 12229
# 24543
# 37365
# 47918
# 57187
# 68756
# 79896
# 89795
# 101093
#
# Disc length: 1517 seconds
#
#
# Revision: 0
# Processed by: cddbd v1.4PL0 Copyright (c) Steve Scherf et al.
# Submitted via: FreeRIP 2.00 
#
DISCID=8a05eb0a
DTITLE=Moe Bandy - Cowboys Ain't Supposed To Cry
DYEAR=1977
DGENRE=Country
TTITLE0=Cowboys Ain't Supposed To Cry
TTITLE1=She Finally Rocked You Out Of Her Mind
TTITLE2=Up To Now I've Wanted Everything But You
TTITLE3=Misery Loves Company
TTITLE4=Why Don't You Love Me
TTITLE5=She Just Loved The Cheatin Out Of Me
TTITLE6=No Deal
TTITLE7=All I Can Handle At Home
TTITLE8=Till I Stop Needing You
TTITLE9=I Could Never Be Ashamed Of You
EXTD=Columbia 34874
EXTT0=
EXTT1=
EXTT2=
EXTT3=
EXTT4=
EXTT5=
EXTT6=
EXTT7=
EXTT8=
EXTT9=
PLAYORDER=
